<?xml version="1.0" encoding="UTF-8" standalone="no"?>
<svg
   id="Layer_1"
   data-name="Layer 1"
   viewBox="0 0 120.47 122.88"
   version="1.1"
   sodipodi:docname="about.svg"
   inkscape:version="1.3 (0e150ed6c4, 2023-07-21)"
   xmlns:inkscape="http://www.inkscape.org/namespaces/inkscape"
   xmlns:sodipodi="http://sodipodi.sourceforge.net/DTD/sodipodi-0.dtd"
   xmlns="http://www.w3.org/2000/svg"
   xmlns:svg="http://www.w3.org/2000/svg"
   xmlns:rdf="http://www.w3.org/1999/02/22-rdf-syntax-ns#"
   xmlns:cc="http://creativecommons.org/ns#"
   xmlns:dc="http://purl.org/dc/elements/1.1/">
  <sodipodi:namedview
     id="namedview1"
     pagecolor="#ffffff"
     bordercolor="#000000"
     borderopacity="0.25"
     inkscape:showpageshadow="2"
     inkscape:pageopacity="0.0"
     inkscape:pagecheckerboard="0"
     inkscape:deskcolor="#d1d1d1"
     inkscape:zoom="7.0068361"
     inkscape:cx="60.298256"
     inkscape:cy="61.582716"
     inkscape:window-width="1920"
     inkscape:window-height="1057"
     inkscape:window-x="1912"
     inkscape:window-y="-8"
     inkscape:window-maximized="1"
     inkscape:current-layer="Layer_1" />
  <defs
     id="defs1">
    <style
       id="style1">.cls-1{fill-rule:evenodd;}</style>
  </defs>
  <title
     id="title1">how-to</title>
  <path
     class="cls-1"
     d="M17.2,0H79.49a17.24,17.24,0,0,1,17.2,17.2V55.55a17.24,17.24,0,0,1-17.2,17.2H46.92L20.81,95.2A2.9,2.9,0,0,1,16,92.81l1.39-20.07H17.2A17.24,17.24,0,0,1,0,55.55V17.2A17.24,17.24,0,0,1,17.2,0ZM52.6,44.65H41.29v-.46a13.89,13.89,0,0,1,.65-4.69,10.39,10.39,0,0,1,2-3.29A59.46,59.46,0,0,1,49.72,31q2.41-2,2.41-3.6a3.35,3.35,0,0,0-1-2.55,4.19,4.19,0,0,0-2.94-.91,4.67,4.67,0,0,0-3.49,1.41c-.93.92-1.52,2.56-1.77,4.87L31.4,28.75A15.81,15.81,0,0,1,36,18.49q4-3.88,12.39-3.88c4.33,0,7.81.9,10.48,2.7a11.3,11.3,0,0,1,5.42,9.77A9.36,9.36,0,0,1,62.9,32a23.65,23.65,0,0,1-5.71,5.75,15.44,15.44,0,0,0-3.8,3.83,5.57,5.57,0,0,0-.79,3.1ZM40.9,48.32H53V57H40.9V48.32ZM106.79,28a16.92,16.92,0,0,1,13.68,16.55V82.88a16.9,16.9,0,0,1-16.85,16.85H103l1.42,20.44a2.54,2.54,0,0,1-4.18,2.1L74,99.07H39.49l17-17.3h36a14.34,14.34,0,0,0,14.3-14.3V29.11c0-.38,0-.76,0-1.13ZM79.48,5.8H17.2A11.44,11.44,0,0,0,5.8,17.2V55.55A11.44,11.44,0,0,0,17.2,67h3.53a2.9,2.9,0,0,1,2.69,3.08L22.29,86.31,43.83,67.79a2.87,2.87,0,0,1,2-.84H79.48a11.44,11.44,0,0,0,11.4-11.4V17.2A11.44,11.44,0,0,0,79.48,5.8Z"
     id="path1"
     style="fill:#10b981;fill-opacity:0.18431373" />
  <metadata
     id="metadata1">
    <rdf:RDF>
      <cc:Work
         rdf:about="">
        <dc:title>how-to</dc:title>
      </cc:Work>
    </rdf:RDF>
  </metadata>
</svg>
