<?xml version="1.0" encoding="UTF-8" standalone="no"?>
<svg
   width="153"
   height="52"
   viewBox="0 0 153 52"
   fill="none"
   version="1.1"
   id="svg2"
   sodipodi:docname="carpethome.svg"
   inkscape:version="1.3 (0e150ed6c4, 2023-07-21)"
   xmlns:inkscape="http://www.inkscape.org/namespaces/inkscape"
   xmlns:sodipodi="http://sodipodi.sourceforge.net/DTD/sodipodi-0.dtd"
   xmlns="http://www.w3.org/2000/svg"
   xmlns:svg="http://www.w3.org/2000/svg">
  <defs
     id="defs2" />
  <sodipodi:namedview
     id="namedview2"
     pagecolor="#ffffff"
     bordercolor="#000000"
     borderopacity="0.25"
     inkscape:showpageshadow="2"
     inkscape:pageopacity="0.0"
     inkscape:pagecheckerboard="0"
     inkscape:deskcolor="#d1d1d1"
     inkscape:zoom="8.124183"
     inkscape:cx="76.5"
     inkscape:cy="26.033387"
     inkscape:window-width="1920"
     inkscape:window-height="1057"
     inkscape:window-x="1912"
     inkscape:window-y="-8"
     inkscape:window-maximized="1"
     inkscape:current-layer="svg2" />
  <rect
     width="153"
     height="52"
     fill="#FAEEE7"
     id="rect1"
     style="fill:#ffffff;fill-opacity:1" />
  <path
     d="M40.2784 40.4375H37.7898C37.7443 40.1155 37.6515 39.8295 37.5114 39.5795C37.3712 39.3258 37.1913 39.1098 36.9716 38.9318C36.7519 38.7538 36.4981 38.6174 36.2102 38.5227C35.9261 38.428 35.6174 38.3807 35.2841 38.3807C34.6818 38.3807 34.1572 38.5303 33.7102 38.8295C33.2633 39.125 32.9167 39.5568 32.6705 40.125C32.4242 40.6894 32.3011 41.375 32.3011 42.1818C32.3011 43.0114 32.4242 43.7083 32.6705 44.2727C32.9205 44.8371 33.2689 45.2633 33.7159 45.5511C34.1629 45.839 34.6799 45.983 35.267 45.983C35.5966 45.983 35.9015 45.9394 36.1818 45.8523C36.4659 45.7652 36.7178 45.6383 36.9375 45.4716C37.1572 45.3011 37.339 45.0947 37.483 44.8523C37.6307 44.6098 37.733 44.3333 37.7898 44.0227L40.2784 44.0341C40.214 44.5682 40.053 45.0833 39.7955 45.5795C39.5417 46.072 39.1989 46.5133 38.767 46.9034C38.339 47.2898 37.8277 47.5966 37.233 47.8239C36.642 48.0473 35.9735 48.1591 35.2273 48.1591C34.1894 48.1591 33.2614 47.9242 32.4432 47.4545C31.6288 46.9848 30.9848 46.3049 30.5114 45.4148C30.0417 44.5246 29.8068 43.447 29.8068 42.1818C29.8068 40.9129 30.0455 39.8333 30.5227 38.9432C31 38.053 31.6477 37.375 32.4659 36.9091C33.2841 36.4394 34.2045 36.2045 35.2273 36.2045C35.9015 36.2045 36.5265 36.2992 37.1023 36.4886C37.6818 36.678 38.1951 36.9545 38.642 37.3182C39.089 37.678 39.4527 38.1193 39.733 38.642C40.017 39.1648 40.1989 39.7633 40.2784 40.4375ZM44.4858 48.1648C43.929 48.1648 43.4328 48.0682 42.9972 47.875C42.5616 47.678 42.2169 47.3883 41.9631 47.0057C41.7131 46.6193 41.5881 46.1383 41.5881 45.5625C41.5881 45.0777 41.6771 44.6705 41.8551 44.3409C42.0331 44.0114 42.2756 43.7462 42.5824 43.5455C42.8892 43.3447 43.2377 43.1932 43.6278 43.0909C44.0218 42.9886 44.4347 42.9167 44.8665 42.875C45.3741 42.822 45.7831 42.7727 46.0938 42.7273C46.4044 42.678 46.6297 42.6061 46.7699 42.5114C46.91 42.4167 46.9801 42.2765 46.9801 42.0909V42.0568C46.9801 41.697 46.8665 41.4186 46.6392 41.2216C46.4157 41.0246 46.0975 40.9261 45.6847 40.9261C45.2491 40.9261 44.9025 41.0227 44.6449 41.2159C44.3873 41.4053 44.2169 41.6439 44.1335 41.9318L41.8949 41.75C42.0085 41.2197 42.232 40.7614 42.5653 40.375C42.8987 39.9848 43.3286 39.6856 43.8551 39.4773C44.3854 39.2652 44.9991 39.1591 45.696 39.1591C46.1809 39.1591 46.6449 39.2159 47.0881 39.3295C47.535 39.4432 47.9309 39.6193 48.2756 39.858C48.6241 40.0966 48.8987 40.4034 49.0994 40.7784C49.3002 41.1496 49.4006 41.5947 49.4006 42.1136V48H47.1051V46.7898H47.0369C46.8968 47.0625 46.7093 47.303 46.4744 47.5114C46.2396 47.7159 45.9574 47.8769 45.6278 47.9943C45.2983 48.108 44.9176 48.1648 44.4858 48.1648ZM45.179 46.4943C45.535 46.4943 45.8494 46.4242 46.1222 46.2841C46.3949 46.1402 46.6089 45.947 46.7642 45.7045C46.9195 45.4621 46.9972 45.1875 46.9972 44.8807V43.9545C46.9214 44.0038 46.8172 44.0492 46.6847 44.0909C46.5559 44.1288 46.41 44.1648 46.2472 44.1989C46.0843 44.2292 45.9214 44.2576 45.7585 44.2841C45.5956 44.3068 45.4479 44.3277 45.3153 44.3466C45.0313 44.3883 44.7831 44.4545 44.571 44.5455C44.3589 44.6364 44.1941 44.7595 44.0767 44.9148C43.9593 45.0663 43.9006 45.2557 43.9006 45.483C43.9006 45.8125 44.0199 46.0644 44.2585 46.2386C44.5009 46.4091 44.8078 46.4943 45.179 46.4943ZM51.2784 48V39.2727H53.625V40.7955H53.7159C53.875 40.2538 54.142 39.8447 54.517 39.5682C54.892 39.2879 55.3239 39.1477 55.8125 39.1477C55.9337 39.1477 56.0644 39.1553 56.2045 39.1705C56.3447 39.1856 56.4678 39.2064 56.5739 39.233V41.3807C56.4602 41.3466 56.303 41.3163 56.1023 41.2898C55.9015 41.2633 55.7178 41.25 55.5511 41.25C55.1951 41.25 54.8769 41.3277 54.5966 41.483C54.3201 41.6345 54.1004 41.8466 53.9375 42.1193C53.7784 42.392 53.6989 42.7064 53.6989 43.0625V48H51.2784ZM57.8253 51.2727V39.2727H60.2116V40.7386H60.3196C60.4257 40.5038 60.5791 40.2652 60.7798 40.0227C60.9844 39.7765 61.2495 39.572 61.5753 39.4091C61.9048 39.2424 62.3139 39.1591 62.8026 39.1591C63.4389 39.1591 64.026 39.3258 64.5639 39.6591C65.1018 39.9886 65.5317 40.4867 65.8537 41.1534C66.1757 41.8163 66.3366 42.6477 66.3366 43.6477C66.3366 44.6212 66.1795 45.4432 65.8651 46.1136C65.5545 46.7803 65.1302 47.286 64.5923 47.6307C64.0582 47.9716 63.4598 48.142 62.7969 48.142C62.3272 48.142 61.9276 48.0644 61.598 47.9091C61.2723 47.7538 61.0052 47.5587 60.7969 47.3239C60.5885 47.0852 60.4295 46.8447 60.3196 46.6023H60.2457V51.2727H57.8253ZM60.1946 43.6364C60.1946 44.1553 60.2666 44.608 60.4105 44.9943C60.5545 45.3807 60.7628 45.6818 61.0355 45.8977C61.3082 46.1098 61.6397 46.2159 62.0298 46.2159C62.4238 46.2159 62.7571 46.108 63.0298 45.892C63.3026 45.6723 63.509 45.3693 63.6491 44.983C63.7931 44.5928 63.8651 44.1439 63.8651 43.6364C63.8651 43.1326 63.795 42.6894 63.6548 42.3068C63.5147 41.9242 63.3082 41.625 63.0355 41.4091C62.7628 41.1932 62.4276 41.0852 62.0298 41.0852C61.6359 41.0852 61.3026 41.1894 61.0298 41.3977C60.7609 41.6061 60.5545 41.9015 60.4105 42.2841C60.2666 42.6667 60.1946 43.1174 60.1946 43.6364ZM71.9276 48.1705C71.0298 48.1705 70.2571 47.9886 69.6094 47.625C68.9654 47.2576 68.4692 46.7386 68.1207 46.0682C67.7723 45.3939 67.598 44.5966 67.598 43.6761C67.598 42.7784 67.7723 41.9905 68.1207 41.3125C68.4692 40.6345 68.9598 40.1061 69.5923 39.7273C70.2287 39.3485 70.9749 39.1591 71.831 39.1591C72.4067 39.1591 72.9427 39.2519 73.4389 39.4375C73.9389 39.6193 74.3745 39.8939 74.7457 40.2614C75.1207 40.6288 75.4124 41.0909 75.6207 41.6477C75.8291 42.2008 75.9332 42.8485 75.9332 43.5909V44.2557H68.5639V42.7557H73.6548C73.6548 42.4072 73.5791 42.0985 73.4276 41.8295C73.276 41.5606 73.0658 41.3504 72.7969 41.1989C72.5317 41.0436 72.223 40.9659 71.8707 40.9659C71.5033 40.9659 71.1776 41.0511 70.8935 41.2216C70.6132 41.3883 70.3935 41.6136 70.2344 41.8977C70.0753 42.178 69.9938 42.4905 69.9901 42.8352V44.2614C69.9901 44.6932 70.0696 45.0663 70.2287 45.3807C70.3916 45.6951 70.6207 45.9375 70.9162 46.108C71.2116 46.2784 71.562 46.3636 71.9673 46.3636C72.2363 46.3636 72.4825 46.3258 72.706 46.25C72.9295 46.1742 73.1207 46.0606 73.2798 45.9091C73.4389 45.7576 73.5601 45.572 73.6435 45.3523L75.8821 45.5C75.7685 46.0379 75.5355 46.5076 75.1832 46.9091C74.8348 47.3068 74.384 47.6174 73.831 47.8409C73.2817 48.0606 72.6473 48.1705 71.9276 48.1705ZM82.1548 39.2727V41.0909H76.8991V39.2727H82.1548ZM78.0923 37.1818H80.5128V45.3182C80.5128 45.5417 80.5469 45.7159 80.6151 45.8409C80.6832 45.9621 80.7779 46.0473 80.8991 46.0966C81.0241 46.1458 81.1681 46.1705 81.331 46.1705C81.4446 46.1705 81.5582 46.161 81.6719 46.142C81.7855 46.1193 81.8726 46.1023 81.9332 46.0909L82.3139 47.892C82.1927 47.9299 82.0223 47.9735 81.8026 48.0227C81.5829 48.0758 81.3158 48.108 81.0014 48.1193C80.4181 48.142 79.9067 48.0644 79.4673 47.8864C79.0317 47.7083 78.6927 47.4318 78.4503 47.0568C78.2079 46.6818 78.0885 46.2083 78.0923 45.6364V37.1818ZM84.1747 48V36.3636H85.5838V41.5455H91.7884V36.3636H93.1974V48H91.7884V42.7955H85.5838V48H84.1747ZM99.3821 48.1818C98.5942 48.1818 97.9029 47.9943 97.3082 47.6193C96.7173 47.2443 96.2552 46.7197 95.9219 46.0455C95.5923 45.3712 95.4276 44.5833 95.4276 43.6818C95.4276 42.7727 95.5923 41.9792 95.9219 41.3011C96.2552 40.6231 96.7173 40.0966 97.3082 39.7216C97.9029 39.3466 98.5942 39.1591 99.3821 39.1591C100.17 39.1591 100.859 39.3466 101.45 39.7216C102.045 40.0966 102.507 40.6231 102.837 41.3011C103.17 41.9792 103.337 42.7727 103.337 43.6818C103.337 44.5833 103.17 45.3712 102.837 46.0455C102.507 46.7197 102.045 47.2443 101.45 47.6193C100.859 47.9943 100.17 48.1818 99.3821 48.1818ZM99.3821 46.9773C99.9806 46.9773 100.473 46.8239 100.859 46.517C101.246 46.2102 101.532 45.8068 101.717 45.3068C101.903 44.8068 101.996 44.2652 101.996 43.6818C101.996 43.0985 101.903 42.5549 101.717 42.0511C101.532 41.5473 101.246 41.1402 100.859 40.8295C100.473 40.5189 99.9806 40.3636 99.3821 40.3636C98.7836 40.3636 98.2912 40.5189 97.9048 40.8295C97.5185 41.1402 97.2325 41.5473 97.0469 42.0511C96.8613 42.5549 96.7685 43.0985 96.7685 43.6818C96.7685 44.2652 96.8613 44.8068 97.0469 45.3068C97.2325 45.8068 97.5185 46.2102 97.9048 46.517C98.2912 46.8239 98.7836 46.9773 99.3821 46.9773ZM105.384 48V39.2727H106.679V40.6364H106.793C106.974 40.1705 107.268 39.8087 107.673 39.5511C108.079 39.2898 108.565 39.1591 109.134 39.1591C109.709 39.1591 110.188 39.2898 110.571 39.5511C110.957 39.8087 111.259 40.1705 111.474 40.6364H111.565C111.789 40.1856 112.124 39.8277 112.571 39.5625C113.018 39.2936 113.554 39.1591 114.179 39.1591C114.959 39.1591 115.598 39.4034 116.094 39.892C116.59 40.3769 116.838 41.1326 116.838 42.1591V48H115.497V42.1591C115.497 41.5152 115.321 41.0549 114.969 40.7784C114.616 40.5019 114.202 40.3636 113.724 40.3636C113.111 40.3636 112.635 40.5492 112.298 40.9205C111.961 41.2879 111.793 41.7538 111.793 42.3182V48H110.429V42.0227C110.429 41.5265 110.268 41.1269 109.946 40.8239C109.624 40.517 109.209 40.3636 108.702 40.3636C108.353 40.3636 108.027 40.4564 107.724 40.642C107.425 40.8277 107.183 41.0852 106.997 41.4148C106.815 41.7405 106.724 42.1174 106.724 42.5455V48H105.384ZM122.949 48.1818C122.108 48.1818 121.383 47.9962 120.773 47.625C120.167 47.25 119.699 46.7273 119.369 46.0568C119.044 45.3826 118.881 44.5985 118.881 43.7045C118.881 42.8106 119.044 42.0227 119.369 41.3409C119.699 40.6553 120.157 40.1212 120.744 39.7386C121.335 39.3523 122.025 39.1591 122.812 39.1591C123.267 39.1591 123.716 39.2348 124.159 39.3864C124.602 39.5379 125.006 39.7841 125.369 40.125C125.733 40.4621 126.023 40.9091 126.239 41.4659C126.455 42.0227 126.562 42.7083 126.562 43.5227V44.0909H119.835V42.9318H125.199C125.199 42.4394 125.1 42 124.903 41.6136C124.71 41.2273 124.434 40.9223 124.074 40.6989C123.718 40.4754 123.297 40.3636 122.812 40.3636C122.278 40.3636 121.816 40.4962 121.426 40.7614C121.04 41.0227 120.742 41.3636 120.534 41.7841C120.326 42.2045 120.222 42.6553 120.222 43.1364V43.9091C120.222 44.5682 120.335 45.1269 120.562 45.5852C120.794 46.0398 121.114 46.3864 121.523 46.625C121.932 46.8598 122.407 46.9773 122.949 46.9773C123.301 46.9773 123.619 46.928 123.903 46.8295C124.191 46.7273 124.439 46.5758 124.648 46.375C124.856 46.1705 125.017 45.9167 125.131 45.6136L126.426 45.9773C126.29 46.4167 126.061 46.803 125.739 47.1364C125.417 47.4659 125.019 47.7235 124.545 47.9091C124.072 48.0909 123.54 48.1818 122.949 48.1818Z"
     fill="black"
     id="path1" />
  <path
     d="M0.12 21.56L1.4 19.352C1.82667 19.6293 2.424 19.896 3.192 20.152C3.96 20.408 4.856 20.536 5.88 20.536C6.94667 20.536 7.78933 20.4293 8.408 20.216C9.048 20.0027 9.50667 19.6933 9.784 19.288C10.0827 18.8613 10.232 18.3707 10.232 17.816C10.232 17.3893 10.136 16.8667 9.944 16.248C9.77333 15.608 9.38933 14.7547 8.792 13.688C8.19467 12.6 7.27733 11.1813 6.04 9.432L8.248 7.992C9.37867 9.54933 10.2747 10.9573 10.936 12.216C11.6187 13.4747 12.0987 14.584 12.376 15.544C12.6747 16.4827 12.824 17.2933 12.824 17.976C12.824 18.8293 12.6107 19.6613 12.184 20.472C11.7573 21.2613 11.0427 21.912 10.04 22.424C9.03733 22.936 7.65067 23.192 5.88 23.192C5.112 23.192 4.36533 23.128 3.64 23C2.936 22.872 2.28533 22.6907 1.688 22.456C1.09067 22.2 0.568 21.9013 0.12 21.56ZM23.562 23.16C21.8553 23.16 20.5433 22.968 19.626 22.584C18.73 22.2 18.1113 21.6027 17.77 20.792C17.4287 19.9813 17.2367 18.936 17.194 17.656L16.554 0.151999H19.178L19.818 16.632C19.8607 17.6773 19.9567 18.488 20.106 19.064C20.2767 19.6187 20.6393 20.0027 21.194 20.216C21.77 20.4293 22.666 20.536 23.882 20.536C24.33 20.536 24.65 20.664 24.842 20.92C25.0553 21.1547 25.162 21.4427 25.162 21.784C25.162 22.1253 25.0127 22.4453 24.714 22.744C24.4153 23.0213 24.0313 23.16 23.562 23.16ZM43.9465 23.16C43.0505 23.16 42.2292 23.1067 41.4825 23C40.7358 22.872 40.0638 22.648 39.4665 22.328C38.8692 22.008 38.3678 21.5493 37.9625 20.952C37.5572 20.3333 37.2478 19.5227 37.0345 18.52L38.9225 17.4C39.1998 18.2533 39.5412 18.904 39.9465 19.352C40.3518 19.8 40.8958 20.1093 41.5785 20.28C42.2825 20.4507 43.1785 20.536 44.2665 20.536C44.7145 20.536 45.0345 20.664 45.2265 20.92C45.4398 21.1547 45.5465 21.4427 45.5465 21.784C45.5465 22.1253 45.3972 22.4453 45.0985 22.744C44.7998 23.0213 44.4158 23.16 43.9465 23.16ZM23.5625 23.16L23.8505 20.536C24.9598 20.536 26.0478 20.4507 27.1145 20.28C28.1812 20.1093 29.2265 19.864 30.2505 19.544C31.2745 19.224 32.2558 18.84 33.1945 18.392C34.1545 17.9227 35.0612 17.3893 35.9145 16.792C35.3598 16.3013 34.7198 15.8747 33.9945 15.512C33.2692 15.1493 32.4692 14.872 31.5945 14.68C30.7412 14.4667 29.8345 14.36 28.8745 14.36C28.5332 14.36 28.2132 14.3707 27.9145 14.392C27.6158 14.4133 27.3172 14.456 27.0185 14.52C26.7198 14.5627 26.3785 14.6267 25.9945 14.712L25.4825 12.28C26.0585 12.1093 26.6345 11.9813 27.2105 11.896C27.7865 11.7893 28.3412 11.736 28.8745 11.736C29.9838 11.736 30.9865 11.8747 31.8825 12.152C32.7785 12.408 33.5892 12.728 34.3145 13.112C35.0612 13.496 35.7545 13.88 36.3945 14.264C37.0558 14.648 37.6958 14.9787 38.3145 15.256C38.9332 15.512 39.5732 15.64 40.2345 15.64H40.9065L41.1305 17.944C40.2132 17.944 39.3705 18.072 38.6025 18.328C37.8345 18.584 37.0772 18.9147 36.3305 19.32C35.6052 19.704 34.8372 20.12 34.0265 20.568C33.2158 20.9947 32.3198 21.4107 31.3385 21.816C30.3572 22.2 29.2265 22.52 27.9465 22.776C26.6878 23.032 25.2265 23.16 23.5625 23.16ZM31.9145 28.952C31.4665 28.952 31.0825 28.792 30.7625 28.472C30.4638 28.1733 30.3145 27.8107 30.3145 27.384C30.3145 26.9573 30.4638 26.584 30.7625 26.264C31.0825 25.944 31.4665 25.784 31.9145 25.784C32.3412 25.784 32.7038 25.944 33.0025 26.264C33.3225 26.584 33.4825 26.9573 33.4825 27.384C33.4825 27.8107 33.3225 28.1733 33.0025 28.472C32.7038 28.792 32.3412 28.952 31.9145 28.952ZM43.9375 23.16L44.2575 20.536C44.9402 20.536 45.4948 20.4933 45.9215 20.408C46.3482 20.3013 46.7002 20.056 46.9775 19.672C47.2762 19.2667 47.5535 18.6373 47.8095 17.784C48.0655 16.9307 48.3642 15.736 48.7055 14.2L51.1055 14.872C50.9775 15.4053 50.8282 16.0453 50.6575 16.792C50.4868 17.5387 50.4015 18.2213 50.4015 18.84C50.4015 19.1813 50.4868 19.48 50.6575 19.736C50.8282 19.992 51.1162 20.1947 51.5215 20.344C51.9482 20.472 52.5135 20.536 53.2175 20.536C53.8575 20.536 54.3802 20.4827 54.7855 20.376C55.1908 20.2693 55.5215 20.0133 55.7775 19.608C56.0548 19.2027 56.3002 18.552 56.5135 17.656C56.7268 16.76 56.9508 15.5333 57.1855 13.976L59.6175 14.424C59.5535 14.808 59.4788 15.2773 59.3935 15.832C59.3082 16.3867 59.2228 16.9413 59.1375 17.496C59.0735 18.0293 59.0415 18.4773 59.0415 18.84C59.0415 19.1387 59.1055 19.4267 59.2335 19.704C59.3828 19.96 59.6602 20.1627 60.0655 20.312C60.4922 20.4613 61.1215 20.536 61.9535 20.536C63.0202 20.536 63.7882 20.312 64.2575 19.864C64.7482 19.416 64.9935 18.7333 64.9935 17.816C64.9935 17.3253 64.9828 16.8133 64.9615 16.28C64.9402 15.7253 64.8975 15.1173 64.8335 14.456C64.7908 13.7733 64.7162 12.9947 64.6095 12.12L66.9455 11.96C67.0735 13.688 67.2122 15.1067 67.3615 16.216C67.5322 17.3253 67.7668 18.2 68.0655 18.84C68.3855 19.4587 68.8122 19.896 69.3455 20.152C69.8788 20.408 70.5828 20.536 71.4575 20.536C71.9055 20.536 72.2255 20.664 72.4175 20.92C72.6308 21.1547 72.7375 21.4427 72.7375 21.784C72.7375 22.1253 72.5882 22.4453 72.2895 22.744C71.9908 23.0213 71.6068 23.16 71.1375 23.16C70.4122 23.16 69.7615 23.064 69.1855 22.872C68.6308 22.6587 68.1402 22.3813 67.7135 22.04C67.3082 21.6773 66.9668 21.272 66.6895 20.824C66.4335 20.3547 66.2522 19.864 66.1455 19.352L66.7215 19.544C66.4868 20.504 66.1135 21.2507 65.6015 21.784C65.1108 22.296 64.5242 22.6587 63.8415 22.872C63.1588 23.064 62.4335 23.16 61.6655 23.16C60.7268 23.16 59.9588 23.0427 59.3615 22.808C58.7642 22.5733 58.2948 22.2213 57.9535 21.752C57.6335 21.2613 57.4202 20.6427 57.3135 19.896H58.4015C57.9962 20.8133 57.5695 21.5067 57.1215 21.976C56.6735 22.4453 56.1188 22.7653 55.4575 22.936C54.7962 23.0853 53.9215 23.16 52.8335 23.16C52.3002 23.16 51.7242 23.0747 51.1055 22.904C50.5082 22.7333 49.9855 22.4027 49.5375 21.912C49.0895 21.4 48.8228 20.6427 48.7375 19.64L49.6975 19.448C49.3348 20.536 48.8868 21.3467 48.3535 21.88C47.8415 22.392 47.2228 22.7333 46.4975 22.904C45.7722 23.0747 44.9188 23.16 43.9375 23.16ZM71.125 23.16L71.413 20.536C72.629 20.536 73.4823 20.4187 73.973 20.184C74.4637 19.9493 74.741 19.5333 74.805 18.936C74.8903 18.3387 74.9117 17.5067 74.869 16.44L74.261 0.151999H76.853L77.493 16.152C77.5357 17.2827 77.493 18.2853 77.365 19.16C77.2583 20.0347 76.981 20.7707 76.533 21.368C76.1063 21.9653 75.4557 22.4133 74.581 22.712C73.7277 23.0107 72.5757 23.16 71.125 23.16ZM82.3815 23L81.7415 0.151999H84.3335L84.9735 23H82.3815ZM108.069 23.672L108.901 19.192C110.437 19.192 111.909 19.1173 113.317 18.968C114.746 18.8187 116.101 18.52 117.381 18.072C118.682 17.624 119.898 16.9627 121.029 16.088C122.159 15.2133 123.183 14.04 124.101 12.568L127.685 14.2C127.557 14.6053 127.45 15 127.365 15.384C127.279 15.7467 127.237 16.0453 127.237 16.28C127.237 16.7707 127.354 17.1973 127.589 17.56C127.845 17.9227 128.271 18.2 128.869 18.392C129.466 18.584 130.287 18.68 131.333 18.68C132.143 18.68 132.719 18.8933 133.061 19.32C133.402 19.7253 133.573 20.2373 133.573 20.856C133.573 21.5173 133.349 22.072 132.901 22.52C132.474 22.9467 131.845 23.16 131.013 23.16C129.541 23.16 128.261 22.9573 127.173 22.552C126.106 22.1467 125.263 21.5813 124.645 20.856C124.047 20.1093 123.695 19.256 123.589 18.296L124.869 18.424C124.101 19.3413 123.141 20.1307 121.989 20.792C120.858 21.4533 119.567 21.9973 118.117 22.424C116.687 22.8507 115.119 23.16 113.413 23.352C111.727 23.5653 109.946 23.672 108.069 23.672ZM108.037 23.672C105.733 23.672 103.781 23.4907 102.181 23.128C100.602 22.7867 99.3114 22.296 98.3088 21.656C97.3274 20.9947 96.6128 20.2267 96.1648 19.352C95.7168 18.4773 95.4928 17.5173 95.4928 16.472C95.4928 15.7893 95.5461 15.1067 95.6528 14.424C95.7808 13.72 95.9301 13.0373 96.1008 12.376C96.2928 11.7147 96.4634 11.1173 96.6128 10.584L100.613 11.512C100.527 11.896 100.431 12.312 100.325 12.76C100.218 13.208 100.133 13.6453 100.069 14.072C100.005 14.4773 99.9728 14.8507 99.9728 15.192C99.9728 15.9813 100.25 16.6853 100.805 17.304C101.381 17.9013 102.319 18.3707 103.621 18.712C104.922 19.032 106.671 19.192 108.869 19.192L109.509 22.648L108.037 23.672ZM113.989 9.048C113.37 9.048 112.837 8.83467 112.389 8.408C111.962 7.96 111.749 7.43733 111.749 6.84C111.749 6.22133 111.962 5.688 112.389 5.24C112.837 4.792 113.37 4.568 113.989 4.568C114.586 4.568 115.098 4.792 115.525 5.24C115.951 5.688 116.165 6.22133 116.165 6.84C116.165 7.43733 115.951 7.96 115.525 8.408C115.098 8.83467 114.586 9.048 113.989 9.048ZM108.453 9.016C107.834 9.016 107.301 8.80267 106.853 8.376C106.426 7.928 106.213 7.40533 106.213 6.808C106.213 6.18933 106.426 5.656 106.853 5.208C107.301 4.76 107.834 4.536 108.453 4.536C109.05 4.536 109.562 4.76 109.989 5.208C110.415 5.656 110.629 6.18933 110.629 6.808C110.629 7.40533 110.415 7.928 109.989 8.376C109.562 8.80267 109.05 9.016 108.453 9.016ZM131 23.16L131.32 18.68C132.088 18.68 132.749 18.6053 133.304 18.456C133.859 18.3067 134.328 18.008 134.712 17.56C135.096 17.0907 135.416 16.408 135.672 15.512C135.949 14.616 136.195 13.4213 136.408 11.928L140.6 12.632C140.557 12.952 140.493 13.3253 140.408 13.752C140.344 14.1787 140.28 14.616 140.216 15.064C140.173 15.4907 140.152 15.896 140.152 16.28C140.152 16.664 140.227 17.0053 140.376 17.304C140.525 17.6027 140.76 17.8587 141.08 18.072C141.421 18.264 141.859 18.4133 142.392 18.52C142.947 18.6267 143.619 18.68 144.408 18.68C145.219 18.68 145.795 18.8933 146.136 19.32C146.477 19.7253 146.648 20.2373 146.648 20.856C146.648 21.5173 146.424 22.072 145.976 22.52C145.549 22.9467 144.92 23.16 144.088 23.16C143.128 23.16 142.253 23.0853 141.464 22.936C140.696 22.7867 140.024 22.5413 139.448 22.2C138.893 21.8373 138.435 21.368 138.072 20.792C137.731 20.1947 137.517 19.4693 137.432 18.616H138.968C138.584 19.64 138.093 20.4613 137.496 21.08C136.92 21.6773 136.269 22.1253 135.544 22.424C134.819 22.7227 134.061 22.9147 133.272 23C132.504 23.1067 131.747 23.16 131 23.16ZM139.928 30.584C139.309 30.584 138.776 30.36 138.328 29.912C137.901 29.4853 137.688 28.9733 137.688 28.376C137.688 27.7573 137.901 27.224 138.328 26.776C138.776 26.328 139.309 26.104 139.928 26.104C140.525 26.104 141.037 26.328 141.464 26.776C141.891 27.224 142.104 27.7573 142.104 28.376C142.104 28.9733 141.891 29.4853 141.464 29.912C141.037 30.36 140.525 30.584 139.928 30.584ZM134.392 30.584C133.773 30.584 133.24 30.36 132.792 29.912C132.365 29.4853 132.152 28.9733 132.152 28.376C132.152 27.7573 132.365 27.224 132.792 26.776C133.24 26.328 133.773 26.104 134.392 26.104C134.989 26.104 135.501 26.328 135.928 26.776C136.355 27.224 136.568 27.7573 136.568 28.376C136.568 28.9733 136.355 29.4853 135.928 29.912C135.501 30.36 134.989 30.584 134.392 30.584ZM144.094 23.16L144.414 18.68C145.352 18.68 146.088 18.616 146.622 18.488C147.176 18.36 147.571 18.1253 147.806 17.784C148.04 17.4213 148.158 16.9093 148.158 16.248C148.158 15.6507 148.072 14.936 147.902 14.104C147.752 13.272 147.55 12.408 147.294 11.512C147.038 10.616 146.782 9.79467 146.526 9.048L150.942 7.832C151.198 8.55733 151.454 9.4 151.71 10.36C151.966 11.32 152.179 12.312 152.35 13.336C152.542 14.3387 152.638 15.3093 152.638 16.248C152.638 17.4213 152.488 18.4133 152.19 19.224C151.891 20.0133 151.475 20.6747 150.942 21.208C150.43 21.72 149.811 22.1253 149.086 22.424C148.382 22.7013 147.603 22.8933 146.75 23C145.896 23.1067 145.011 23.16 144.094 23.16ZM148.03 30.52C147.411 30.52 146.878 30.3067 146.43 29.88C146.003 29.4533 145.79 28.9307 145.79 28.312C145.79 27.6933 146.003 27.1493 146.43 26.68C146.878 26.232 147.411 26.008 148.03 26.008C148.648 26.008 149.171 26.232 149.598 26.68C150.046 27.1493 150.27 27.6933 150.27 28.312C150.27 28.9307 150.046 29.4533 149.598 29.88C149.171 30.3067 148.648 30.52 148.03 30.52Z"
     fill="black"
     id="path2" />
</svg>
